# xmcd CD database file
#
# Track frame offsets:
#	150
#	15425
#	29845
#	51718
#	65615
#	77413
#	92483
#	108605
#	125928
#	139523
#	158190
#	171680
#	190628
#	205725
#	218125
#	229895
#	242840
#	256385
#	273178
#	287363
#	301015
#
# Disc length: 4225 seconds
#
# Revision: 0
# Processed by: cddbd v1.5.2PL0 Copyright (c) Steve Scherf et al.
# Submitted via: CDex 1.70beta2
#
DISCID=30107f15
DTITLE=ChartBreakers - ChartBreakers CGC-502
DYEAR=0000
DGENRE=Country
TTITLE0=Joe Diffie/Prop Me Up Beside The Jukebox
TTITLE1=Vince Gill/One More Last Chance
TTITLE2=Garth Brooks/That Summer
TTITLE3=Brooks and Dunn/We'll Burn That Bridge
TTITLE4=Tracy Byrd/Holdin' Heaven
TTITLE5=Carlene Carter/Every Little Thing
TTITLE6=Joe Diffie/Honky Tonk Attitude
TTITLE7=Alan Jackson/Midnight In Montgomery
TTITLE8=Sammy Kershaw/Cadillac Style
TTITLE9=Little Texas/First Time For Everything
TTITLE10=Kathy Mattea/Battle Hymn Of Love
TTITLE11=K T Oslin/Do Ya'
TTITLE12=Forrester Sisters/Men
TTITLE13=Crystal Gayle/Don't It Make My Brown Eyes Blue
TTITLE14=Highway 101/Bing Bang Boom
TTITLE15=George Jones/I Don't Need Your Rockin' Chair
TTITLE16=Ray Kennedy/What A Way To Go
TTITLE17=Alan Jackson/Mercury Blues
TTITLE18=Toby Keith/He Ain't Worth Missing
TTITLE19=Mark Chesnutt/It Sure Is Monday
TTITLE20=Radney Foster/Nobody Wins
EXTD=YEAR: 0000
EXTT0=
EXTT1=
EXTT2=
EXTT3=
EXTT4=
EXTT5=
EXTT6=
EXTT7=
EXTT8=
EXTT9=
EXTT10=
EXTT11=
EXTT12=
EXTT13=
EXTT14=
EXTT15=
EXTT16=
EXTT17=
EXTT18=
EXTT19=
EXTT20=
PLAYORDER=
